# xmcd
#
# Track frame offsets: 
#        150
#        11606
#        26402
#        40451
#        55112
#        66261
#        77603
#        93587
#        102965
#        115169
#        125962
#
# Disc length: 1849 seconds
#
# Revision: 0
# Processed by: cddbd v1.5.2PL0 Copyright (c) Steve Scherf et al.
# Submitted via: ExactAudioCopy v1.1
#
DISCID=9007370b
DTITLE=The New Jump blues - The New Jump blues
DYEAR=2014
DGENRE=Blues
TTITLE0=Blood Shot Eyes
TTITLE1=How Long This Train Been Gone
TTITLE2=Wastin My Time
TTITLE3=Mama's Got To Have Two
TTITLE4=Keep On Churning
TTITLE5=Good Rockin Daddy
TTITLE6=You Showed Me
TTITLE7=Mama He Treats Your Daughter Mean
TTITLE8=All She Wants To Do Is Mambo
TTITLE9=Train Kept A-Rollin
TTITLE10=Cow Cow Boogie
EXTD=
EXTT0=
EXTT1=
EXTT2=
EXTT3=
EXTT4=
EXTT5=
EXTT6=
EXTT7=
EXTT8=
EXTT9=
EXTT10=
PLAYORDER=
